<svg xmlns="http://www.w3.org/2000/svg" version="1.1" xmlns:xlink="http://www.w3.org/1999/xlink" xmlns:svgjs="http://svgjs.dev/svgjs" width="1000" height="532" viewBox="0 0 1000 532"><g transform="matrix(1,0,0,1,-0.6060606060606233,0.19212822270890229)"><svg viewBox="0 0 396 211" data-background-color="#ffffff" preserveAspectRatio="xMidYMid meet" height="532" width="1000" xmlns="http://www.w3.org/2000/svg" xmlns:xlink="http://www.w3.org/1999/xlink"><g id="tight-bounds" transform="matrix(1,0,0,1,0.2400000000000091,-0.07620123118717004)"><svg viewBox="0 0 395.52 211.1520579654214" height="211.1520579654214" width="395.52"><g><svg viewBox="0 0 395.52 211.1520579654214" height="211.1520579654214" width="395.52"><g transform="matrix(1,0,0,1,0,108.75458749044628)"><svg viewBox="0 0 395.52 102.39747047497511" height="102.39747047497511" width="395.52"><g id="textblocktransform"><svg viewBox="0 0 395.52 102.39747047497511" height="102.39747047497511" width="395.52" id="textblock"><g><svg viewBox="0 0 395.52 102.39747047497511" height="102.39747047497511" width="395.52"><g transform="matrix(1,0,0,1,0,0)"><svg width="395.52" viewBox="-0.00813 -18.9168 172.21632 44.58565" height="102.39747047497511" data-palette-color="#8d021f"><path d="M-0.008 12.451l8.841-31.368c0.218 0.061 0.714 0.194 1.488 0.399 0.775 0.198 1.644 0.432 2.607 0.703 0.956 0.269 1.914 0.533 2.873 0.79 0.96 0.257 1.748 0.472 2.364 0.645v0c3.587 1.011 6.114 2.489 7.582 4.433 1.468 1.944 1.835 4.216 1.102 6.815v0c-0.427 1.514-1.226 2.754-2.399 3.718-1.174 0.971-2.607 1.62-4.299 1.947v0c1.655 1.229 2.787 2.632 3.396 4.209 0.604 1.569 0.667 3.201 0.189 4.895v0c-0.749 2.656-2.356 4.513-4.822 5.571-2.46 1.059-5.73 1.014-9.811-0.137v0c-0.834-0.235-1.729-0.487-2.686-0.757-0.956-0.269-1.865-0.536-2.725-0.799-0.863-0.257-1.624-0.479-2.285-0.665-0.667-0.188-1.139-0.321-1.415-0.399zM9.462-0.028l-2.845 10.097 3.984 1.123c2.098 0.591 3.736 0.544 4.913-0.142 1.177-0.686 1.965-1.739 2.365-3.157v0c0.183-0.648 0.262-1.311 0.239-1.99-0.032-0.674-0.225-1.327-0.58-1.961-0.355-0.633-0.898-1.212-1.63-1.737-0.74-0.52-1.726-0.954-2.957-1.301v0c-0.744-0.21-1.402-0.395-1.974-0.557-0.571-0.161-1.076-0.286-1.515-0.375zM13.25-13.464l-2.664 9.452 3.561 1.003c1.951 0.55 3.47 0.493 4.557-0.17 1.087-0.663 1.814-1.643 2.179-2.939v0c0.165-0.584 0.237-1.197 0.217-1.84-0.021-0.636-0.192-1.249-0.51-1.837-0.317-0.595-0.815-1.137-1.495-1.627-0.679-0.489-1.59-0.895-2.733-1.217v0c-0.68-0.192-1.274-0.359-1.78-0.502-0.507-0.143-0.951-0.251-1.332-0.323zM45.941-10.84c2.372 0.404 4.336 1.127 5.889 2.17 1.546 1.048 2.746 2.361 3.599 3.941 0.854 1.579 1.363 3.414 1.528 5.504 0.163 2.097 0.032 4.395-0.393 6.892v0c-0.421 2.471-1.081 4.678-1.981 6.622-0.907 1.949-2.059 3.551-3.456 4.808-1.404 1.255-3.052 2.138-4.945 2.647-1.892 0.509-4.041 0.559-6.447 0.149v0c-2.372-0.404-4.346-1.106-5.92-2.104-1.567-1.004-2.779-2.286-3.636-3.845-0.857-1.559-1.371-3.365-1.542-5.416-0.172-2.045-0.043-4.332 0.388-6.863v0c0.421-2.471 1.084-4.695 1.988-6.67 0.905-1.976 2.064-3.618 3.477-4.926 1.407-1.309 3.067-2.223 4.981-2.743 1.914-0.519 4.071-0.574 6.47-0.166zM44.536-6.585c-1.393-0.237-2.599-0.125-3.618 0.337-1.025 0.461-1.915 1.178-2.669 2.152-0.749 0.982-1.365 2.178-1.849 3.591-0.485 1.419-0.873 2.982-1.165 4.691v0c-0.274 1.61-0.427 3.163-0.459 4.659-0.024 1.49 0.162 2.838 0.56 4.041 0.396 1.21 1.05 2.235 1.961 3.073 0.919 0.84 2.2 1.399 3.843 1.68v0c1.36 0.232 2.558 0.128 3.593-0.311 1.036-0.446 1.929-1.142 2.679-2.09 0.743-0.949 1.359-2.122 1.848-3.52 0.482-1.399 0.865-2.936 1.151-4.612v0c0.274-1.61 0.426-3.177 0.455-4.7 0.031-1.53-0.15-2.913-0.54-4.15-0.391-1.237-1.041-2.284-1.95-3.142-0.916-0.853-2.196-1.419-3.84-1.699zM75.501-7.798c2.403 0.133 4.435 0.63 6.097 1.489 1.655 0.866 2.995 2.036 4.022 3.509 1.027 1.472 1.74 3.238 2.14 5.296 0.4 2.065 0.529 4.363 0.389 6.892v0c-0.139 2.503-0.545 4.77-1.218 6.803-0.681 2.039-1.644 3.761-2.891 5.168-1.253 1.406-2.791 2.469-4.614 3.19-1.823 0.72-3.952 1.013-6.388 0.877v0c-2.403-0.133-4.443-0.607-6.121-1.421-1.67-0.82-3.02-1.957-4.047-3.409-1.028-1.452-1.743-3.188-2.145-5.207-0.403-2.012-0.533-4.299-0.391-6.862v0c0.139-2.503 0.546-4.787 1.222-6.853 0.675-2.066 1.641-3.828 2.897-5.288 1.249-1.46 2.796-2.556 4.639-3.288 1.843-0.732 3.98-1.031 6.409-0.896zM74.587-3.412c-1.411-0.078-2.597 0.17-3.557 0.744-0.967 0.574-1.77 1.387-2.408 2.44-0.633 1.06-1.11 2.319-1.432 3.777-0.322 1.464-0.53 3.062-0.626 4.793v0c-0.09 1.631-0.067 3.191 0.071 4.681 0.145 1.484 0.482 2.801 1.013 3.952 0.53 1.158 1.296 2.102 2.296 2.831 1.008 0.73 2.344 1.142 4.008 1.234v0c1.378 0.076 2.556-0.162 3.535-0.715 0.979-0.56 1.788-1.353 2.426-2.38 0.631-1.027 1.11-2.262 1.437-3.706 0.32-1.444 0.528-3.015 0.622-4.713v0c0.09-1.631 0.064-3.205-0.079-4.721-0.143-1.524-0.478-2.878-1.006-4.062-0.529-1.184-1.293-2.152-2.293-2.902-1.007-0.744-2.343-1.161-4.007-1.253zM93.904 25.669l-1.318-32.563 5.725-0.232 1.143 28.237 12.17-0.493 0.176 4.326zM132.332-10.599l-8.266 33.795-4.449 0.527-15.925-30.933 6.077-0.719 5.381 11.094c1.374 2.878 2.564 5.413 3.568 7.604 1.004 2.191 1.767 3.869 2.288 5.036v0c0.208-1.253 0.541-3.031 1-5.335 0.453-2.296 1.042-5.037 1.766-8.224v0l2.771-12.16zM139.728 21.167l-5.7-32.087 5.642-1.003 5.7 32.088zM152.738 18.44l-7.906-31.616 18.772-4.694 1.05 4.2-13.213 3.304 2.208 8.828 10.875-2.719 0.364 4.424-10.177 2.545 2.535 10.137 13.912-3.478 1.05 4.2z" opacity="1" transform="matrix(1,0,0,1,0,0)" fill="#8d021f" class="undefined-text-0" data-fill-palette-color="primary" id="text-0"></path></svg></g></svg></g></svg></g></svg></g><g transform="matrix(1,0,0,1,129.99696806803115,0)"><svg viewBox="0 0 135.52606386393765 102.39747047497511" height="102.39747047497511" width="135.52606386393765"><g><svg xmlns="http://www.w3.org/2000/svg" xmlns:xlink="http://www.w3.org/1999/xlink" version="1.1" x="0" y="0" viewBox="5 16 90 68" enable-background="new 0 0 100 100" xml:space="preserve" height="102.39747047497511" width="135.52606386393765" class="icon-icon-0" data-fill-palette-color="accent" id="icon-0"><path d="M82.529 47L77 54.235V54H52v19.848 1.349 0.289 0.096V77h37.327 5.037c-0.066 0-0.136 0.478-0.212 0.658-0.525 1.242-1.276 2.415-2.23 3.369-0.954 0.954-2.068 1.661-3.311 2.187C87.32 83.76 85.953 84 84.55 84H15.439c-1.403 0-2.77-0.213-4.061-0.759-1.242-0.525-2.356-1.251-3.311-2.206-0.954-0.954-1.705-2.159-2.23-3.401C5.761 77.454 5.691 77 5.626 77h5.037H48v-1.418-0.096-0.289-1.349V54H23v0.2L17.581 47h30.781 3.372H82.529zM77.062 54.25l0.011-0.008v-0.007L77.062 54.25zM23.06 54.25L23.023 54.2v0.023L23.06 54.25zM94.164 21.984c-0.525-1.242-1.282-2.356-2.237-3.311-0.954-0.954-2.072-1.515-3.314-2.04C87.323 16.087 85.953 16 84.55 16H15.439c-1.403 0-2.77 0.087-4.061 0.633-1.242 0.525-2.356 1.181-3.311 2.135-0.954 0.954-1.712 2.021-2.238 3.263C5.284 23.323 5 24.641 5 26.045v47.658C5 73.752 5.016 74 5.016 74h4.492 4.493H23V54.223l-8.306-6.094c-0.269-0.198-0.397-0.413-0.686-0.66C13.333 46.669 13 45.638 13 44.558v-2.95V26.621C13 24.166 14.897 22 17.352 22h65.476C85.248 22 87 24.137 87 26.557v15.05 2.95c0 1.145-0.291 2.235-1.062 3.053-0.193 0.192-0.39 0.37-0.607 0.529L77 54.242V74h8.988 4.493 4.492C94.974 74 95 73.752 95 73.703V26.045C95 24.641 94.71 23.275 94.164 21.984zM57.203 31.66l-3.549-0.516c-0.397-0.058-0.74-0.307-0.917-0.666l-1.587-3.216c-0.447-0.905-1.738-0.905-2.185 0l-1.587 3.216c-0.177 0.36-0.52 0.609-0.917 0.666l-3.549 0.516c-0.999 0.145-1.398 1.373-0.675 2.078l2.568 2.503c0.287 0.28 0.418 0.683 0.35 1.078l-0.606 3.534c-0.171 0.995 0.874 1.754 1.767 1.284l3.174-1.669c0.355-0.187 0.779-0.187 1.134 0l3.174 1.669c0.894 0.47 1.938-0.289 1.767-1.284l-0.606-3.534c-0.068-0.395 0.063-0.798 0.35-1.078l2.568-2.503C58.601 33.033 58.202 31.806 57.203 31.66z" fill="#8d021f" data-fill-palette-color="accent"></path></svg></g></svg></g><g></g></svg></g><defs></defs></svg><rect width="395.52" height="211.1520579654214" fill="none" stroke="none" visibility="hidden"></rect></g></svg></g></svg>